<?xml version="1.0" encoding="UTF-8" standalone="no"?>
<!-- Created with Inkscape (http://www.inkscape.org/) -->

<svg
   xmlns:dc="http://purl.org/dc/elements/1.1/"
   xmlns:cc="http://creativecommons.org/ns#"
   xmlns:rdf="http://www.w3.org/1999/02/22-rdf-syntax-ns#"
   xmlns:svg="http://www.w3.org/2000/svg"
   xmlns="http://www.w3.org/2000/svg"
   xmlns:sodipodi="http://sodipodi.sourceforge.net/DTD/sodipodi-0.dtd"
   xmlns:inkscape="http://www.inkscape.org/namespaces/inkscape"
   width="6.3499999mm"
   height="10.583333mm"
   viewBox="0 0 22.5 37.499999"
   id="svg3426"
   version="1.1"
   inkscape:version="0.91 r13725"
   sodipodi:docname="mobile.svg">
  <defs
     id="defs3428" />
  <sodipodi:namedview
     id="base"
     pagecolor="#ffffff"
     bordercolor="#666666"
     borderopacity="1.0"
     inkscape:pageopacity="0.0"
     inkscape:pageshadow="2"
     inkscape:zoom="0.35"
     inkscape:cx="71.96429"
     inkscape:cy="-175.53571"
     inkscape:document-units="px"
     inkscape:current-layer="layer1"
     showgrid="false"
     fit-margin-top="0"
     fit-margin-left="0"
     fit-margin-right="0"
     fit-margin-bottom="0"
     inkscape:window-width="1536"
     inkscape:window-height="799"
     inkscape:window-x="-8"
     inkscape:window-y="-8"
     inkscape:window-maximized="1" />
  <metadata
     id="metadata3431">
    <rdf:RDF>
      <cc:Work
         rdf:about="">
        <dc:format>image/svg+xml</dc:format>
        <dc:type
           rdf:resource="http://purl.org/dc/dcmitype/StillImage" />
        <dc:title></dc:title>
      </cc:Work>
    </rdf:RDF>
  </metadata>
  <g
     inkscape:label="Layer 1"
     inkscape:groupmode="layer"
     id="layer1"
     transform="translate(-303.03571,-319.32649)">
    <path
       d="m 323.03571,325.57649 -17.5,0 0,-3.75 17.5,0 0,3.75 z m 0,22.5 -17.5,0 0,-21.25 17.5,0 0,21.25 z m 0,6.25 -17.5,0 0,-5 17.5,0 0,5 z m 0,-35 -17.5,0 c -1.375,0 -2.5,1.125 -2.5,2.5 l 0,32.5 c 0,1.375 1.125,2.5 2.5,2.5 l 17.5,0 c 1.375,0 2.5,-1.125 2.5,-2.5 l 0,-32.5 c 0,-1.375 -1.125,-2.5 -2.5,-2.5"
       style="fill:#2245a4;fill-opacity:1;fill-rule:nonzero;stroke:none"
       id="path20"
       inkscape:connector-curvature="0" />
    <path
       d="m 316.78571,324.32649 -5,0 0,-1.25 5,0 0,1.25 z"
       style="fill:#2245a4;fill-opacity:1;fill-rule:nonzero;stroke:none"
       id="path22"
       inkscape:connector-curvature="0" />
    <g
       id="g24"
       transform="matrix(1.25,0,0,-1.25,315.53571,351.82649)">
      <path
         d="m 0,0 c 0,-0.55 -0.45,-1 -1,-1 -0.55,0 -1,0.45 -1,1 0,0.55 0.45,1 1,1 0.55,0 1,-0.45 1,-1"
         style="fill:#2245a4;fill-opacity:1;fill-rule:nonzero;stroke:none"
         id="path26"
         inkscape:connector-curvature="0" />
    </g>
  </g>
</svg>
