<?xml version="1.0" encoding="UTF-8" standalone="no"?>
<!-- Created with Inkscape (http://www.inkscape.org/) -->

<svg
   xmlns:dc="http://purl.org/dc/elements/1.1/"
   xmlns:cc="http://creativecommons.org/ns#"
   xmlns:rdf="http://www.w3.org/1999/02/22-rdf-syntax-ns#"
   xmlns:svg="http://www.w3.org/2000/svg"
   xmlns="http://www.w3.org/2000/svg"
   xmlns:sodipodi="http://sodipodi.sourceforge.net/DTD/sodipodi-0.dtd"
   xmlns:inkscape="http://www.inkscape.org/namespaces/inkscape"
   width="4.1970854mm"
   height="4.1971736mm"
   viewBox="0 0 14.871562 14.871875"
   id="svg3394"
   version="1.1"
   inkscape:version="0.91 r13725"
   sodipodi:docname="x.svg">
  <defs
     id="defs3396" />
  <sodipodi:namedview
     id="base"
     pagecolor="#ffffff"
     bordercolor="#666666"
     borderopacity="1.0"
     inkscape:pageopacity="0.0"
     inkscape:pageshadow="2"
     inkscape:zoom="1"
     inkscape:cx="-226.13564"
     inkscape:cy="138.86451"
     inkscape:document-units="px"
     inkscape:current-layer="layer1"
     showgrid="false"
     fit-margin-top="0"
     fit-margin-left="0"
     fit-margin-right="0"
     fit-margin-bottom="0"
     inkscape:window-width="1536"
     inkscape:window-height="799"
     inkscape:window-x="-8"
     inkscape:window-y="-8"
     inkscape:window-maximized="1" />
  <metadata
     id="metadata3399">
    <rdf:RDF>
      <cc:Work
         rdf:about="">
        <dc:format>image/svg+xml</dc:format>
        <dc:type
           rdf:resource="http://purl.org/dc/dcmitype/StillImage" />
        <dc:title></dc:title>
      </cc:Work>
    </rdf:RDF>
  </metadata>
  <g
     inkscape:label="Layer 1"
     inkscape:groupmode="layer"
     id="layer1"
     transform="translate(-601.13564,-656.35484)">
    <g
       id="g28"
       transform="matrix(1.25,0,0,-1.25,613.87458,670.86203)">
      <path
         d="m 0,0 -9.899,9.9 c -0.389,0.389 -0.389,1.025 0,1.414 0.389,0.389 1.025,0.389 1.414,0 L 1.414,1.415 C 1.803,1.025 1.803,0.39 1.414,0 1.025,-0.389 0.389,-0.389 0,0"
         style="fill:#2245a4;fill-opacity:1;fill-rule:evenodd;stroke:none"
         id="path30"
         inkscape:connector-curvature="0" />
    </g>
    <g
       id="g32"
       transform="matrix(1.25,0,0,-1.25,603.26783,670.86203)">
      <path
         d="m 0,0 9.899,9.9 c 0.39,0.389 0.39,1.025 0,1.414 -0.388,0.389 -1.024,0.389 -1.414,0 L -1.414,1.415 C -1.803,1.025 -1.803,0.39 -1.414,0 -1.025,-0.389 -0.389,-0.389 0,0"
         style="fill:#2245a4;fill-opacity:1;fill-rule:evenodd;stroke:none"
         id="path34"
         inkscape:connector-curvature="0" />
    </g>
  </g>
</svg>
