<?xml version="1.0" encoding="UTF-8" standalone="no"?>
<!-- Created with Inkscape (http://www.inkscape.org/) -->

<svg
   xmlns:dc="http://purl.org/dc/elements/1.1/"
   xmlns:cc="http://creativecommons.org/ns#"
   xmlns:rdf="http://www.w3.org/1999/02/22-rdf-syntax-ns#"
   xmlns:svg="http://www.w3.org/2000/svg"
   xmlns="http://www.w3.org/2000/svg"
   xmlns:sodipodi="http://sodipodi.sourceforge.net/DTD/sodipodi-0.dtd"
   xmlns:inkscape="http://www.inkscape.org/namespaces/inkscape"
   id="svg2"
   version="1.1"
   inkscape:version="0.91 r13725"
   xml:space="preserve"
   width="292.75876"
   height="49.937752"
   viewBox="0 0 292.75876 49.937752"
   sodipodi:docname="logo.svg"><metadata
     id="metadata8"><rdf:RDF><cc:Work
         rdf:about=""><dc:format>image/svg+xml</dc:format><dc:type
           rdf:resource="http://purl.org/dc/dcmitype/StillImage" /><dc:title></dc:title></cc:Work></rdf:RDF></metadata><defs
     id="defs6"><clipPath
       clipPathUnits="userSpaceOnUse"
       id="clipPath16"><path
         d="m 0,39.95 234.207,0 0,-39.95 L 0,0 0,39.95 Z"
         id="path18"
         inkscape:connector-curvature="0" /></clipPath><linearGradient
       x1="0"
       y1="0"
       x2="1"
       y2="0"
       gradientUnits="userSpaceOnUse"
       gradientTransform="matrix(134.03952,0,0,-134.03952,78.425163,30.282249)"
       spreadMethod="pad"
       id="linearGradient192"><stop
         style="stop-opacity:1;stop-color:#e8eef5"
         offset="0"
         id="stop194" /><stop
         style="stop-opacity:1;stop-color:#e8eef5"
         offset="0.01414699"
         id="stop196" /><stop
         style="stop-opacity:1;stop-color:#006492"
         offset="1"
         id="stop198" /></linearGradient><clipPath
       clipPathUnits="userSpaceOnUse"
       id="clipPath206"><path
         d="m 0,39.95 234.207,0 0,-39.95 L 0,0 0,39.95 Z"
         id="path208"
         inkscape:connector-curvature="0" /></clipPath></defs><sodipodi:namedview
     pagecolor="#ffffff"
     bordercolor="#ffffff"
     borderopacity="1"
     objecttolerance="10"
     gridtolerance="10"
     guidetolerance="10"
     inkscape:pageopacity="0"
     inkscape:pageshadow="2"
     inkscape:window-width="640"
     inkscape:window-height="480"
     id="namedview4"
     showgrid="false"
     inkscape:zoom="1"
     inkscape:cx="146.37938"
     inkscape:cy="24.968876"
     inkscape:window-x="0"
     inkscape:window-y="0"
     inkscape:window-maximized="0"
     inkscape:current-layer="g10" /><g
     id="g10"
     inkscape:groupmode="layer"
     inkscape:label="Векторный смарт-объект"
     transform="matrix(1.25,0,0,-1.25,0,49.93775)"><g
       id="g12"><g
         id="g14"
         clip-path="url(#clipPath16)"><g
           id="g20"
           transform="translate(84.7676,6.0088)"><path
             d="M 0,0 0,-1.851 C 0,-2.787 -0.012,-3.59 -0.07,-4.437 l 0.023,0 c 0.262,0.713 0.594,1.483 0.842,2.096 L 1.756,0 l 0.959,0 0,-5.396 -0.842,0 0,1.773 c 0,1.17 0.023,1.807 0.084,2.631 l -0.023,0 C 1.719,-1.661 1.494,-2.263 1.246,-2.855 1.057,-3.301 0.535,-4.527 0.107,-5.396 l -0.935,0 0,5.396 L 0,0 Z"
             style="fill:#ffffff;fill-opacity:1;fill-rule:nonzero;stroke:none"
             id="path22"
             inkscape:connector-curvature="0" /></g><g
           id="g24"
           transform="translate(89.5586,6.0088)"><path
             d="m 0,0 1.078,0 0.748,-2.375 c 0.201,-0.624 0.344,-1.06 0.522,-1.717 l 0.021,0 c 0.18,0.692 0.285,1.082 0.486,1.717 L 3.58,0 l 1.102,0 0.39,-5.396 -0.865,0 -0.105,2.319 C 4.066,-2.363 4.041,-1.84 4.018,-0.814 l -0.036,0 C 3.852,-1.371 3.65,-2.096 3.412,-2.888 l -0.769,-2.475 -0.664,0 -0.747,2.397 C 0.994,-2.219 0.793,-1.46 0.639,-0.802 l -0.024,0 C 0.604,-1.661 0.58,-2.363 0.533,-3.122 l -0.096,-2.274 -0.841,0 L 0,0 Z"
             style="fill:#ffffff;fill-opacity:1;fill-rule:nonzero;stroke:none"
             id="path26"
             inkscape:connector-curvature="0" /></g><g
           id="g28"
           transform="translate(98.7109,3.8682)"><path
             d="M 0,0 C 0.023,1.081 -0.416,1.561 -0.854,1.561 -1.445,1.561 -1.754,0.736 -1.789,0 L 0,0 Z m -1.801,-0.636 c 0.012,-1.65 0.699,-2.007 1.364,-2.007 0.39,0 0.72,0.089 0.947,0.212 l 0.142,-0.635 c -0.32,-0.167 -0.806,-0.257 -1.256,-0.257 -1.375,0 -2.087,1.059 -2.087,2.71 0,1.751 0.783,2.843 1.933,2.843 1.172,0 1.635,-1.159 1.635,-2.385 0,-0.201 0,-0.347 -0.012,-0.481 l -2.666,0 z"
             style="fill:#ffffff;fill-opacity:1;fill-rule:nonzero;stroke:none"
             id="path30"
             inkscape:connector-curvature="0" /></g><g
           id="g32"
           transform="translate(102.0781,6.0088)"><path
             d="m 0,0 0,-2.286 1.695,0 0,2.286 0.914,0 0,-5.396 -0.914,0 0,2.375 -1.695,0 0,-2.375 -0.912,0 0,5.396 L 0,0 Z"
             style="fill:#ffffff;fill-opacity:1;fill-rule:nonzero;stroke:none"
             id="path34"
             inkscape:connector-curvature="0" /></g><g
           id="g36"
           transform="translate(107.3906,6.0088)"><path
             d="M 0,0 0,-1.851 C 0,-2.787 -0.012,-3.59 -0.07,-4.437 l 0.023,0 c 0.262,0.713 0.592,1.483 0.842,2.096 L 1.756,0 l 0.959,0 0,-5.396 -0.842,0 0,1.773 c 0,1.17 0.023,1.807 0.082,2.631 l -0.021,0 C 1.719,-1.661 1.494,-2.263 1.244,-2.855 1.055,-3.301 0.533,-4.527 0.107,-5.396 l -0.937,0 L -0.83,0 0,0 Z"
             style="fill:#ffffff;fill-opacity:1;fill-rule:nonzero;stroke:none"
             id="path38"
             inkscape:connector-curvature="0" /></g><g
           id="g40"
           transform="translate(115.5918,1.3037)"><path
             d="m 0,0 c 0.16,-0.033 0.309,-0.033 0.482,-0.033 0.567,0 0.999,0.189 1.27,0.513 0.246,0.29 0.381,0.668 0.381,1.115 0,0.446 -0.16,0.824 -0.443,1.103 C 1.406,2.978 0.988,3.155 0.469,3.155 0.322,3.155 0.16,3.145 0,3.122 L 0,0 Z m 2.578,6.824 0,-0.747 L 0,6.077 0,3.824 C 0.211,3.858 0.42,3.869 0.629,3.869 1.357,3.869 1.973,3.657 2.404,3.278 2.85,2.898 3.107,2.342 3.107,1.639 3.107,0.958 2.898,0.413 2.516,0.023 2.035,-0.479 1.283,-0.736 0.297,-0.736 c -0.617,0 -0.986,0.033 -1.246,0.078 l 0,7.482 3.527,0 z"
             style="fill:#ffffff;fill-opacity:1;fill-rule:nonzero;stroke:none"
             id="path42"
             inkscape:connector-curvature="0" /></g><g
           id="g44"
           transform="translate(123.5059,4.1807)"><path
             d="m 0,0 -2.084,0 0,-2.821 2.369,0 0,-0.747 -3.318,0 0,7.515 3.17,0 0,-0.747 -2.221,0 0,-2.475 L 0,0.725 0,0 Z"
             style="fill:#ffffff;fill-opacity:1;fill-rule:nonzero;stroke:none"
             id="path46"
             inkscape:connector-curvature="0" /></g><g
           id="g48"
           transform="translate(126.4648,4.4141)"><path
             d="m 0,0 c 0.109,-0.021 0.209,-0.033 0.369,-0.033 0.938,0 1.567,0.558 1.567,1.617 0,0.77 -0.358,1.461 -1.407,1.461 C 0.309,3.045 0.123,3.022 0,2.988 L 0,0 Z m -0.951,3.603 c 0.383,0.088 0.84,0.144 1.383,0.144 0.763,0 1.404,-0.167 1.836,-0.558 C 2.676,2.833 2.885,2.287 2.885,1.64 2.885,0.948 2.699,0.48 2.379,0.101 1.924,-0.456 1.158,-0.735 0.418,-0.735 c -0.16,0 -0.283,0 -0.418,0.01 l 0,-3.077 -0.951,0 0,7.405 z"
             style="fill:#ffffff;fill-opacity:1;fill-rule:nonzero;stroke:none"
             id="path50"
             inkscape:connector-curvature="0" /></g><g
           id="g52"
           transform="translate(134.1445,4.1807)"><path
             d="m 0,0 -2.084,0 0,-2.821 2.367,0 0,-0.747 -3.316,0 0,7.515 3.168,0 0,-0.747 -2.219,0 0,-2.475 L 0,0.725 0,0 Z"
             style="fill:#ffffff;fill-opacity:1;fill-rule:nonzero;stroke:none"
             id="path54"
             inkscape:connector-curvature="0" /></g><g
           id="g56"
           transform="translate(135.8438,7.7373)"><path
             d="m 0,0 c 0.371,0.257 0.963,0.479 1.701,0.479 1.309,0 2.035,-0.769 2.035,-1.806 0,-0.814 -0.603,-1.55 -1.455,-1.783 l 0,-0.023 c 1.061,-0.168 1.715,-0.915 1.715,-1.929 0,-1.337 -1.037,-2.152 -2.504,-2.152 -0.58,0 -1.209,0.134 -1.615,0.368 l 0.234,0.713 c 0.332,-0.189 0.764,-0.346 1.321,-0.346 1.023,0 1.589,0.592 1.589,1.417 0,1.003 -0.826,1.517 -1.886,1.517 l -0.26,0 0,0.69 0.186,0 c 0.863,0 1.712,0.603 1.712,1.406 0,0.714 -0.492,1.181 -1.306,1.181 -0.444,0 -0.899,-0.2 -1.221,-0.389 L 0,0 Z"
             style="fill:#ffffff;fill-opacity:1;fill-rule:nonzero;stroke:none"
             id="path58"
             inkscape:connector-curvature="0" /></g><g
           id="g60"
           transform="translate(142.4766,8.1279)"><path
             d="M 0,0 0,-2.688 C 0,-3.992 -0.039,-4.95 -0.111,-6.134 l 0.023,0 c 0.283,0.815 0.729,1.807 1.072,2.621 L 2.477,0 l 0.888,0 0,-7.516 -0.851,0 0,2.599 c 0,1.604 0.025,2.542 0.099,3.545 l -0.025,0 C 2.291,-2.308 1.91,-3.134 1.59,-3.892 l -1.553,-3.624 -0.902,0 0,7.516 L 0,0 Z"
             style="fill:#ffffff;fill-opacity:1;fill-rule:nonzero;stroke:none"
             id="path62"
             inkscape:connector-curvature="0" /></g><g
           id="g64"
           transform="translate(148.959,8.1279)"><path
             d="m 0,0 0,-3.223 2.33,0 0,3.223 0.949,0 0,-7.516 -0.949,0 0,3.513 -2.33,0 0,-3.513 -0.949,0 0,7.516 L 0,0 Z"
             style="fill:#ffffff;fill-opacity:1;fill-rule:nonzero;stroke:none"
             id="path66"
             inkscape:connector-curvature="0" /></g><g
           id="g68"
           transform="translate(157.1074,3.5557)"><path
             d="m 0,0 -0.432,1.907 c -0.123,0.535 -0.234,1.159 -0.332,1.718 l -0.05,0 C -0.912,3.056 -1.035,2.408 -1.146,1.907 L -1.578,0 0,0 Z m -1.713,-0.69 -0.557,-2.253 -0.912,0 1.901,7.515 1.047,0 1.849,-7.515 -0.937,0 -0.555,2.253 -1.836,0 z"
             style="fill:#ffffff;fill-opacity:1;fill-rule:nonzero;stroke:none"
             id="path70"
             inkscape:connector-curvature="0" /></g><g
           id="g72"
           transform="translate(166.6719,0.7461)"><path
             d="m 0,0 c -0.258,-0.122 -0.666,-0.201 -1.184,-0.201 -1.627,0 -2.785,1.182 -2.785,3.736 0,2.966 1.627,3.914 2.934,3.914 0.506,0 0.863,-0.09 1.035,-0.19 L -0.209,6.534 c -0.197,0.078 -0.408,0.156 -0.838,0.156 -0.889,0 -1.924,-0.78 -1.924,-3.077 0,-2.298 0.938,-3.055 1.95,-3.055 0.355,0 0.675,0.077 0.875,0.167 L 0,0 Z"
             style="fill:#ffffff;fill-opacity:1;fill-rule:nonzero;stroke:none"
             id="path74"
             inkscape:connector-curvature="0" /></g><g
           id="g76"
           transform="translate(171.3555,4.1807)"><path
             d="m 0,0 -2.084,0 0,-2.821 2.367,0 0,-0.747 -3.316,0 0,7.515 3.17,0 0,-0.747 -2.221,0 0,-2.475 L 0,0.725 0,0 Z"
             style="fill:#ffffff;fill-opacity:1;fill-rule:nonzero;stroke:none"
             id="path78"
             inkscape:connector-curvature="0" /></g><g
           id="g80"
           transform="translate(174.3145,4.4141)"><path
             d="m 0,0 c 0.109,-0.021 0.209,-0.033 0.369,-0.033 0.938,0 1.567,0.558 1.567,1.617 0,0.77 -0.358,1.461 -1.407,1.461 C 0.309,3.045 0.123,3.022 0,2.988 L 0,0 Z m -0.951,3.603 c 0.383,0.088 0.84,0.144 1.383,0.144 0.763,0 1.404,-0.167 1.836,-0.558 C 2.676,2.833 2.885,2.287 2.885,1.64 2.885,0.948 2.699,0.48 2.379,0.101 1.924,-0.456 1.158,-0.735 0.418,-0.735 c -0.16,0 -0.283,0 -0.418,0.01 l 0,-3.077 -0.951,0 0,7.405 z"
             style="fill:#ffffff;fill-opacity:1;fill-rule:nonzero;stroke:none"
             id="path82"
             inkscape:connector-curvature="0" /></g><g
           id="g84"
           transform="translate(182.2168,8.1279)"><path
             d="m 0,0 0,-0.747 -2.307,0 0,-6.769 -0.949,0 0,7.516 L 0,0 Z"
             style="fill:#ffffff;fill-opacity:1;fill-rule:nonzero;stroke:none"
             id="path86"
             inkscape:connector-curvature="0" /></g><g
           id="g88"
           transform="translate(186.8496,4.1807)"><path
             d="m 0,0 -2.084,0 0,-2.821 2.367,0 0,-0.747 -3.316,0 0,7.515 3.168,0 0,-0.747 -2.219,0 0,-2.475 L 0,0.725 0,0 Z"
             style="fill:#ffffff;fill-opacity:1;fill-rule:nonzero;stroke:none"
             id="path90"
             inkscape:connector-curvature="0" /></g><g
           id="g92"
           transform="translate(191.4727,7.4258)"><path
             d="m 0,0 c -0.123,0.021 -0.271,0.044 -0.492,0.044 -0.975,0 -1.42,-0.624 -1.42,-1.438 0,-0.915 0.666,-1.483 1.578,-1.483 0.123,0 0.211,0 0.334,0.011 L 0,0 Z m -3.182,-6.813 c 0.123,0.234 0.209,0.502 0.284,0.78 0.209,0.781 0.248,1.84 0.802,2.442 0.159,0.179 0.395,0.313 0.629,0.367 l 0,0.024 c -0.803,0.223 -1.406,0.813 -1.406,1.828 0,0.747 0.32,1.315 0.812,1.661 0.42,0.29 0.989,0.446 1.655,0.446 0.455,0 0.949,-0.033 1.355,-0.133 l 0,-7.415 -0.949,0 0,3.278 -0.346,0 c -0.383,0 -0.703,-0.078 -0.949,-0.346 -0.432,-0.479 -0.506,-1.594 -0.678,-2.274 -0.05,-0.224 -0.111,-0.447 -0.222,-0.658 l -0.987,0 z"
             style="fill:#ffffff;fill-opacity:1;fill-rule:nonzero;stroke:none"
             id="path94"
             inkscape:connector-curvature="0" /></g><g
           id="g96"
           transform="translate(89.0293,16.043)"><path
             d="m 0,0 c -0.059,0.992 -0.117,2.096 -0.082,2.943 l -0.047,0 C -0.305,2.107 -0.516,1.215 -0.764,0.334 l -0.972,-3.522 -0.574,0 -0.928,3.377 C -3.496,1.148 -3.73,2.074 -3.883,2.943 l -0.035,0 c 0,-0.88 -0.047,-1.928 -0.096,-3 l -0.15,-3.176 -0.811,0 0.471,7.515 0.973,0 0.926,-3.434 c 0.271,-0.993 0.47,-1.729 0.634,-2.587 l 0.036,0 c 0.152,0.858 0.328,1.572 0.585,2.587 l 0.893,3.434 1.01,0 0.457,-7.515 -0.846,0 L 0,0 Z"
             style="fill:#ffffff;fill-opacity:1;fill-rule:nonzero;stroke:none"
             id="path98"
             inkscape:connector-curvature="0" /></g><g
           id="g100"
           transform="translate(94.748,16.377)"><path
             d="m 0,0 -1.982,0 0,-2.82 2.252,0 0,-0.747 -3.157,0 0,7.515 3.016,0 0,-0.747 -2.111,0 0,-2.475 L 0,0.726 0,0 Z"
             style="fill:#ffffff;fill-opacity:1;fill-rule:nonzero;stroke:none"
             id="path102"
             inkscape:connector-curvature="0" /></g><g
           id="g104"
           transform="translate(98.3867,18.4512)"><path
             d="M 0,0 C 0,-1.048 -0.047,-2.063 -0.211,-2.988 -0.34,-3.656 -0.539,-4.293 -0.773,-4.895 l 2.24,0 0,6.022 L 0,1.127 0,0 Z m 2.359,1.874 0,-6.78 0.528,-0.011 -0.047,-2.286 -0.705,0 -0.059,1.561 -3.496,0 -0.047,-1.561 -0.715,0 -0.047,2.286 0.528,0.011 c 0.293,0.679 0.504,1.349 0.635,2.03 0.185,0.97 0.246,1.962 0.246,3.055 l 0,1.695 3.179,0 z"
             style="fill:#ffffff;fill-opacity:1;fill-rule:nonzero;stroke:none"
             id="path106"
             inkscape:connector-curvature="0" /></g><g
           id="g108"
           transform="translate(103.6836,20.3252)"><path
             d="m 0,0 0,-2.688 c 0,-1.305 -0.035,-2.263 -0.107,-3.446 l 0.025,0 c 0.269,0.815 0.691,1.807 1.019,2.621 L 2.357,0 l 0.844,0 0,-7.516 -0.808,0 0,2.599 c 0,1.604 0.023,2.542 0.093,3.545 l -0.023,0 C 2.182,-2.309 1.816,-3.134 1.512,-3.893 l -1.479,-3.623 -0.855,0 0,7.516 L 0,0 Z"
             style="fill:#ffffff;fill-opacity:1;fill-rule:nonzero;stroke:none"
             id="path110"
             inkscape:connector-curvature="0" /></g><g
           id="g112"
           transform="translate(109.7988,20.3252)"><path
             d="m 0,0 0,-6.768 2.158,0 0,6.768 0.893,0 0,-6.78 0.527,-0.011 -0.047,-2.286 -0.715,0 -0.046,1.561 -3.674,0 0,7.516 L 0,0 Z"
             style="fill:#ffffff;fill-opacity:1;fill-rule:nonzero;stroke:none"
             id="path114"
             inkscape:connector-curvature="0" /></g><g
           id="g116"
           transform="translate(115.7852,20.3252)"><path
             d="m 0,0 0,-2.688 c 0,-1.305 -0.035,-2.263 -0.105,-3.446 l 0.023,0 c 0.269,0.815 0.691,1.807 1.019,2.621 L 2.357,0 l 0.846,0 0,-7.516 -0.81,0 0,2.599 c 0,1.604 0.023,2.542 0.093,3.545 l -0.021,0 C 2.182,-2.309 1.818,-3.134 1.514,-3.893 l -1.479,-3.623 -0.857,0 0,7.516 L 0,0 Z"
             style="fill:#ffffff;fill-opacity:1;fill-rule:nonzero;stroke:none"
             id="path118"
             inkscape:connector-curvature="0" /></g><g
           id="g120"
           transform="translate(121.9004,20.3252)"><path
             d="m 0,0 0,-3.223 2.219,0 0,3.223 0.902,0 0,-7.516 -0.902,0 0,3.513 -2.219,0 0,-3.513 -0.902,0 0,7.516 L 0,0 Z"
             style="fill:#ffffff;fill-opacity:1;fill-rule:nonzero;stroke:none"
             id="path122"
             inkscape:connector-curvature="0" /></g><g
           id="g124"
           transform="translate(130.4707,12.9434)"><path
             d="m 0,0 c -0.248,-0.123 -0.635,-0.201 -1.127,-0.201 -1.551,0 -2.652,1.181 -2.652,3.735 0,2.967 1.549,3.914 2.793,3.914 0.48,0 0.82,-0.09 0.986,-0.19 L -0.201,6.534 c -0.188,0.077 -0.387,0.155 -0.797,0.155 -0.846,0 -1.83,-0.78 -1.83,-3.077 0,-2.297 0.891,-3.054 1.853,-3.054 0.34,0 0.645,0.077 0.832,0.167 L 0,0 Z"
             style="fill:#ffffff;fill-opacity:1;fill-rule:nonzero;stroke:none"
             id="path126"
             inkscape:connector-curvature="0" /></g><g
           id="g128"
           transform="translate(132.877,20.3252)"><path
             d="m 0,0 0,-3.413 0.164,0 L 1.855,0 2.828,0 0.893,-3.523 c 0.972,-0.203 1.291,-0.994 1.49,-1.908 0.164,-0.703 0.281,-1.438 0.527,-2.085 l -0.914,0 C 1.809,-7.025 1.678,-6.278 1.537,-5.643 1.35,-4.739 1.08,-4.048 0.143,-4.048 l -0.143,0 0,-3.468 -0.891,0 0,7.516 L 0,0 Z"
             style="fill:#ffffff;fill-opacity:1;fill-rule:nonzero;stroke:none"
             id="path130"
             inkscape:connector-curvature="0" /></g><g
           id="g132"
           transform="translate(137.9844,20.3252)"><path
             d="m 0,0 0,-2.688 c 0,-1.305 -0.035,-2.263 -0.105,-3.446 l 0.023,0 c 0.269,0.815 0.691,1.807 1.019,2.621 L 2.357,0 l 0.846,0 0,-7.516 -0.81,0 0,2.599 c 0,1.604 0.025,2.542 0.093,3.545 l -0.021,0 C 2.182,-2.309 1.818,-3.134 1.514,-3.893 l -1.479,-3.623 -0.857,0 0,7.516 L 0,0 Z"
             style="fill:#ffffff;fill-opacity:1;fill-rule:nonzero;stroke:none"
             id="path134"
             inkscape:connector-curvature="0" /></g><g
           id="g136"
           transform="translate(144.5449,21.6738)"><path
             d="m 0,0 c 0.059,-0.312 0.199,-0.613 0.668,-0.613 0.436,0 0.611,0.29 0.658,0.613 L 1.994,0 C 1.889,-0.735 1.455,-1.081 0.658,-1.081 -0.094,-1.081 -0.586,-0.735 -0.658,0 L 0,0 Z m -0.527,-1.349 0,-2.687 c 0,-1.306 -0.035,-2.264 -0.106,-3.446 l 0.024,0 c 0.269,0.814 0.691,1.806 1.019,2.621 l 1.42,3.512 0.846,0 0,-7.515 -0.811,0 0,2.598 c 0,1.605 0.024,2.542 0.094,3.545 l -0.023,0 C 1.654,-3.657 1.291,-4.482 0.986,-5.241 l -1.478,-3.623 -0.858,0 0,7.515 0.823,0 z"
             style="fill:#ffffff;fill-opacity:1;fill-rule:nonzero;stroke:none"
             id="path138"
             inkscape:connector-curvature="0" /></g><g
           id="g140"
           transform="translate(152.4824,20.3252)"><path
             d="m 0,0 0,-2.688 c 0,-1.305 -0.035,-2.263 -0.107,-3.446 l 0.025,0 c 0.269,0.815 0.691,1.807 1.019,2.621 L 2.357,0 l 0.844,0 0,-7.516 -0.808,0 0,2.599 c 0,1.604 0.023,2.542 0.093,3.545 l -0.023,0 C 2.182,-2.309 1.818,-3.134 1.514,-3.893 l -1.481,-3.623 -0.855,0 0,7.516 L 0,0 Z"
             style="fill:#ffffff;fill-opacity:1;fill-rule:nonzero;stroke:none"
             id="path142"
             inkscape:connector-curvature="0" /></g><g
           id="g144"
           transform="translate(158.5977,20.3252)"><path
             d="m 0,0 0,-3.223 2.219,0 0,3.223 0.902,0 0,-7.516 -0.902,0 0,3.513 -2.219,0 0,-3.513 -0.904,0 0,7.516 L 0,0 Z"
             style="fill:#ffffff;fill-opacity:1;fill-rule:nonzero;stroke:none"
             id="path146"
             inkscape:connector-curvature="0" /></g><g
           id="g148"
           transform="translate(167.166,12.9434)"><path
             d="m 0,0 c -0.246,-0.123 -0.633,-0.201 -1.125,-0.201 -1.551,0 -2.652,1.181 -2.652,3.735 0,2.967 1.548,3.914 2.791,3.914 0.482,0 0.822,-0.09 0.986,-0.19 L -0.199,6.534 c -0.188,0.077 -0.387,0.155 -0.797,0.155 -0.846,0 -1.832,-0.78 -1.832,-3.077 0,-2.297 0.892,-3.054 1.853,-3.054 0.342,0 0.647,0.077 0.834,0.167 L 0,0 Z"
             style="fill:#ffffff;fill-opacity:1;fill-rule:nonzero;stroke:none"
             id="path150"
             inkscape:connector-curvature="0" /></g><g
           id="g152"
           transform="translate(169.8438,19.5547)"><path
             d="m 0,0 -1.443,0 0,0.77 3.789,0 0,-0.77 -1.442,0 0,-6.745 L 0,-6.745 0,0 Z"
             style="fill:#ffffff;fill-opacity:1;fill-rule:nonzero;stroke:none"
             id="path154"
             inkscape:connector-curvature="0" /></g><g
           id="g156"
           transform="translate(174.4805,20.3252)"><path
             d="m 0,0 0,-2.688 c 0,-1.305 -0.035,-2.263 -0.105,-3.446 l 0.023,0 c 0.269,0.815 0.691,1.807 1.019,2.621 L 2.357,0 l 0.846,0 0,-7.516 -0.81,0 0,2.599 c 0,1.604 0.025,2.542 0.093,3.545 l -0.021,0 C 2.182,-2.309 1.818,-3.134 1.514,-3.893 l -1.479,-3.623 -0.857,0 0,7.516 L 0,0 Z"
             style="fill:#ffffff;fill-opacity:1;fill-rule:nonzero;stroke:none"
             id="path158"
             inkscape:connector-curvature="0" /></g><g
           id="g160"
           transform="translate(180.5371,19.5547)"><path
             d="m 0,0 -1.441,0 0,0.77 3.789,0 0,-0.77 -1.444,0 0,-6.745 L 0,-6.745 0,0 Z"
             style="fill:#ffffff;fill-opacity:1;fill-rule:nonzero;stroke:none"
             id="path162"
             inkscape:connector-curvature="0" /></g><g
           id="g164"
           transform="translate(184.9395,20.3252)"><path
             d="m 0,0 0.939,-3.056 c 0.153,-0.467 0.258,-0.88 0.364,-1.304 l 0.035,0 c 0.094,0.367 0.187,0.858 0.293,1.327 L 2.336,0 3.25,0 2.311,-3.346 C 2.064,-4.171 1.736,-5.52 1.197,-6.523 0.846,-7.17 0.305,-7.604 -0.293,-7.604 c -0.164,0 -0.305,0.009 -0.422,0.043 l 0.047,0.704 c 0.059,-0.012 0.141,-0.024 0.234,-0.024 0.645,0 1.079,0.86 1.243,1.394 0.046,0.133 0.046,0.267 -0.01,0.435 L -0.975,0 0,0 Z"
             style="fill:#ffffff;fill-opacity:1;fill-rule:nonzero;stroke:none"
             id="path166"
             inkscape:connector-curvature="0" /></g><g
           id="g168"
           transform="translate(190.7617,19.5547)"><path
             d="m 0,0 -1.443,0 0,0.77 3.789,0 0,-0.77 -1.442,0 0,-6.745 L 0,-6.745 0,0 Z"
             style="fill:#ffffff;fill-opacity:1;fill-rule:nonzero;stroke:none"
             id="path170"
             inkscape:connector-curvature="0" /></g><g
           id="g172"
           transform="translate(218.2109,19.9922)"><path
             d="m 0,0 c 0,-2.112 -1.711,-3.826 -3.828,-3.826 -2.113,0 -3.826,1.714 -3.826,3.826 0,2.114 1.713,3.827 3.826,3.827 C -1.711,3.827 0,2.114 0,0"
             style="fill:#ffffff;fill-opacity:1;fill-rule:nonzero;stroke:none"
             id="path174"
             inkscape:connector-curvature="0" /></g><g
           id="g176"
           transform="translate(225.1699,19.4024)"><path
             d="m 0,0 c -0.299,-5.775 -5.061,-10.371 -10.912,-10.371 l -0.002,0 -17.477,0 0,-9.031 17.477,0 0.002,0 C -0.07,-19.402 8.732,-10.765 9.037,0 L 0,0 Z"
             style="fill:#ffffff;fill-opacity:1;fill-rule:nonzero;stroke:none"
             id="path178"
             inkscape:connector-curvature="0" /></g></g></g><g
       id="g180"><g
         id="g182"><g
           id="g188"><g
             id="g190"><path
               d="m 79.879,39.95 c 2.072,-1.561 3.281,-3.99 3.281,-6.966 l 0,0 0,-2.065 131.096,0 0.002,0 c 5.828,0 10.574,-4.562 10.908,-10.304 l 0,0 9.037,0 C 233.861,31.35 225.076,39.95 214.258,39.95 l 0,0 -134.379,0 z"
               style="fill:#ffffff;stroke:none"
               id="path200"
               inkscape:connector-curvature="0" /></g></g></g></g><g
       id="g202"><g
         id="g204"
         clip-path="url(#clipPath206)"><g
           id="g210"
           transform="translate(51.1816,24.6572)"><path
             d="m 0,0 1.625,0 c 3.051,0 3.887,-0.807 3.887,-3.756 0,-2.949 -0.836,-3.757 -3.887,-3.757 L 0,-7.513 0,0 Z m 1.858,4.17 -1.858,0 0,5.638 8.721,0 0,5.049 -14.049,0.034 0,-26.574 7.186,0 c 6.294,0 8.98,2.372 8.98,7.927 0,5.556 -2.686,7.926 -8.98,7.926"
             style="fill:#ffffff;fill-opacity:1;fill-rule:nonzero;stroke:none"
             id="path212"
             inkscape:connector-curvature="0" /></g><g
           id="g214"
           transform="translate(10.9922,24.9805)"><path
             d="m 0,0 -3.604,14.609 -7.388,0 0,-26.525 5.097,0 0,18.826 4.377,-18.637 0.045,-0.189 2.948,0 4.421,18.826 0,-18.826 5.098,0 0,26.525 -7.39,0 L 0,0 Z"
             style="fill:#ffffff;fill-opacity:1;fill-rule:nonzero;stroke:none"
             id="path216"
             inkscape:connector-curvature="0" /></g><g
           id="g218"
           transform="translate(80.5449,30.4072)"><path
             d="m 0,0 0,2.157 c 0,4.487 -3.178,7.386 -8.094,7.386 -6.156,0 -8.349,-3.573 -8.349,-6.917 l 0,-13.413 c 0,-3.343 2.193,-6.916 8.349,-6.916 5.967,0 8.094,3.573 8.094,6.916 l 0,3.239 -5.781,0 0,-3.383 c 0,-1.695 -0.67,-2.386 -2.313,-2.386 -1.873,0 -2.568,0.715 -2.568,2.638 l 0,13.197 c 0,1.923 0.695,2.638 2.568,2.638 1.448,0 2.313,-1.08 2.313,-2.89 L -5.781,0 0,0 Z"
             style="fill:#ffffff;fill-opacity:1;fill-rule:nonzero;stroke:none"
             id="path220"
             inkscape:connector-curvature="0" /></g><g
           id="g222"
           transform="translate(30.7656,25.4434)"><path
             d="m 0,0 0,14.146 -5.27,0 0,-26.525 5.018,0 6.412,15.478 0,-15.478 5.27,0 0,26.525 -5.313,0 L 0,0 Z"
             style="fill:#ffffff;fill-opacity:1;fill-rule:nonzero;stroke:none"
             id="path224"
             inkscape:connector-curvature="0" /></g></g></g></g></svg>